<svg xmlns="http://www.w3.org/2000/svg" xmlns:xlink="http://www.w3.org/1999/xlink" version="1.1" x="0px" y="0px" viewBox="0 0 20 20" style="enable-background:new 0 0 20 20;" xml:space="preserve"><g><path d="M10,4c0.6,0,1-0.4,1-1V1c0-0.6-0.4-1-1-1S9,0.4,9,1v2C9,3.6,9.4,4,10,4z"></path><path d="M10,16c-0.6,0-1,0.4-1,1v2c0,0.6,0.4,1,1,1s1-0.4,1-1v-2C11,16.4,10.6,16,10,16z"></path><path d="M15.7,5.8l1.4-1.4c0.4-0.4,0.4-1,0-1.4s-1-0.4-1.4,0l-1.4,1.4c-0.4,0.4-0.4,1,0,1.4S15.3,6.1,15.7,5.8z"></path><path d="M4.3,14.2l-1.4,1.4c-0.4,0.4-0.4,1,0,1.4s1,0.4,1.4,0l1.4-1.4c0.4-0.4,0.4-1,0-1.4S4.7,13.9,4.3,14.2z"></path><path d="M19,9h-2c-0.6,0-1,0.4-1,1s0.4,1,1,1h2c0.6,0,1-0.4,1-1S19.6,9,19,9z"></path><path d="M4,10c0-0.6-0.4-1-1-1H1c-0.6,0-1,0.4-1,1s0.4,1,1,1h2C3.6,11,4,10.6,4,10z"></path><path d="M15.7,14.2c-0.4-0.4-1-0.4-1.4,0c-0.4,0.4-0.4,1,0,1.4l1.4,1.4c0.4,0.4,1,0.4,1.4,0c0.4-0.4,0.4-1,0-1.4L15.7,14.2z"></path><path d="M4.3,5.8c0.4,0.4,1,0.4,1.4,0s0.4-1,0-1.4L4.3,2.9c-0.4-0.4-1-0.4-1.4,0s-0.4,1,0,1.4L4.3,5.8z"></path><path d="M10,5c-2.8,0-5,2.2-5,5s2.2,5,5,5s5-2.2,5-5S12.8,5,10,5z M10,13c-1.7,0-3-1.3-3-3s1.3-3,3-3s3,1.3,3,3S11.7,13,10,13z"></path></g></svg>