<?xml version="1.0" encoding="UTF-8"?>
<svg width="1200pt" height="1200pt" version="1.1" viewBox="0 0 1200 1200" xmlns="http://www.w3.org/2000/svg">
 <g fill="#f9ca3f">
  <path d="m600 240c36 0 60-24 60-60v-120c0-36-24-60-60-60s-60 24-60 60v120c0 36 24 60 60 60z"/>
  <path d="m600 960c-36 0-60 24-60 60v120c0 36 24 60 60 60s60-24 60-60v-120c0-36-24-60-60-60z"/>
  <path d="m942 348 84-84c24-24 24-60 0-84s-60-24-84 0l-84 84c-24 24-24 60 0 84s60 18 84 0z"/>
  <path d="m258 852-84 84c-24 24-24 60 0 84s60 24 84 0l84-84c24-24 24-60 0-84s-60-18-84 0z"/>
  <path d="m1140 540h-120c-36 0-60 24-60 60s24 60 60 60h120c36 0 60-24 60-60s-24-60-60-60z"/>
  <path d="m240 600c0-36-24-60-60-60h-120c-36 0-60 24-60 60s24 60 60 60h120c36 0 60-24 60-60z"/>
  <path d="m942 852c-24-24-60-24-84 0s-24 60 0 84l84 84c24 24 60 24 84 0s24-60 0-84z"/>
  <path d="m258 348c24 24 60 24 84 0s24-60 0-84l-84-90c-24-24-60-24-84 0s-24 60 0 84z"/>
  <path d="m600 300c-168 0-300 132-300 300s132 300 300 300 300-132 300-300-132-300-300-300zm0 480c-102 0-180-78-180-180s78-180 180-180 180 78 180 180-78 180-180 180z"/>
 </g>
</svg>
