<svg width="207" height="207" viewBox="0 0 207 207" fill="none" xmlns="http://www.w3.org/2000/svg">
<g filter="url(#filter0_d_33_2)">
<path d="M102.378 133.822V134.822H103.378H103.5C120.79 134.822 134.822 120.79 134.822 103.5C134.822 86.2097 120.79 72.1776 103.5 72.1776H103.378H102.378V73.1776V133.822ZM59.0166 103.5C59.0166 78.986 78.986 59.0166 103.5 59.0166C128.013 59.0166 147.983 78.986 147.983 103.5C147.983 128.013 128.013 147.983 103.5 147.983C78.986 147.983 59.0166 128.013 59.0166 103.5Z" fill="#F9CA3F" stroke="black" stroke-width="2"/>
<path d="M110.1 35.255C110.1 38.9072 107.152 41.8557 103.5 41.8557C99.8946 41.8557 96.9367 38.9132 96.8989 35.2502C96.9015 31.6036 99.8857 28.6543 103.5 28.6543C107.148 28.6543 110.1 31.6395 110.1 35.255Z" fill="#F9CA3F" stroke="black" stroke-width="2"/>
<path d="M96.8989 171.745C96.8989 168.096 99.8841 165.144 103.5 165.144C107.152 165.144 110.1 168.093 110.1 171.745C110.1 175.397 107.152 178.345 103.5 178.345C99.8474 178.345 96.8989 175.397 96.8989 171.745Z" fill="#F9CA3F" stroke="black" stroke-width="2"/>
<path d="M165.144 103.54C165.144 99.8909 168.129 96.939 171.744 96.939C175.349 96.939 178.307 99.8815 178.345 103.545C178.342 107.194 175.395 110.14 171.744 110.14C168.092 110.14 165.144 107.192 165.144 103.54Z" fill="#F9CA3F" stroke="black" stroke-width="2"/>
<path d="M28.6943 103.54C28.6943 99.8909 31.6796 96.939 35.295 96.939C38.9001 96.939 41.8579 99.8815 41.8957 103.544C41.8932 107.194 38.9457 110.14 35.295 110.14C31.6428 110.14 28.6943 107.192 28.6943 103.54Z" fill="#F9CA3F" stroke="black" stroke-width="2"/>
<path d="M147.103 59.8969C144.542 57.3362 144.542 53.1581 147.103 50.5973C149.663 48.0366 153.842 48.0366 156.402 50.5973C158.963 53.1581 158.963 57.3362 156.402 59.8969C153.842 62.4577 149.663 62.4577 147.103 59.8969Z" fill="#F9CA3F" stroke="black" stroke-width="2"/>
<path d="M50.5973 156.402C48.0366 153.842 48.0366 149.663 50.5973 147.103C53.1581 144.542 57.3362 144.542 59.8969 147.103C62.4577 149.663 62.4577 153.842 59.8969 156.402C57.3362 158.963 53.1581 158.963 50.5973 156.402Z" fill="#F9CA3F" stroke="black" stroke-width="2"/>
<path d="M147.103 147.102L147.103 147.102L147.108 147.098C149.667 144.503 153.838 144.503 156.397 147.098L156.397 147.098L156.402 147.102C158.963 149.663 158.963 153.841 156.402 156.402C153.842 158.963 149.663 158.963 147.103 156.402C144.542 153.841 144.542 149.663 147.103 147.102Z" fill="#F9CA3F" stroke="black" stroke-width="2"/>
<path d="M59.8969 59.8969L59.8969 59.8969L59.8921 59.9018C57.3324 62.4966 53.1619 62.4966 50.6021 59.9018L50.6022 59.9017L50.5973 59.8969C48.0366 57.3361 48.0366 53.1581 50.5973 50.5973C53.1581 48.0366 57.3361 48.0366 59.8969 50.5973C62.4577 53.1581 62.4577 57.3361 59.8969 59.8969Z" fill="#F9CA3F" stroke="black" stroke-width="2"/>
<circle cx="103.5" cy="103.5" r="44.5" stroke="black" stroke-width="2"/>
</g>
<defs>
<filter id="filter0_d_33_2" x="-4" y="0" width="215" height="215" filterUnits="userSpaceOnUse" color-interpolation-filters="sRGB">
<feFlood flood-opacity="0" result="BackgroundImageFix"/>
<feColorMatrix in="SourceAlpha" type="matrix" values="0 0 0 0 0 0 0 0 0 0 0 0 0 0 0 0 0 0 127 0" result="hardAlpha"/>
<feOffset dy="4"/>
<feGaussianBlur stdDeviation="2"/>
<feComposite in2="hardAlpha" operator="out"/>
<feColorMatrix type="matrix" values="0 0 0 0 0 0 0 0 0 0 0 0 0 0 0 0 0 0 0.25 0"/>
<feBlend mode="normal" in2="BackgroundImageFix" result="effect1_dropShadow_33_2"/>
<feBlend mode="normal" in="SourceGraphic" in2="effect1_dropShadow_33_2" result="shape"/>
</filter>
</defs>
</svg>
