<svg width="163" height="163" viewBox="0 0 163 163" fill="none" xmlns="http://www.w3.org/2000/svg">
<path d="M88.6501 24.45C88.6501 26.6677 87.9152 28.4382 86.7017 29.6516C85.4883 30.8651 83.7178 31.6 81.5001 31.6C79.2823 31.6 77.5119 30.8651 76.2985 29.6516C75.085 28.4382 74.3501 26.6677 74.3501 24.45V8.15C74.3501 5.93225 75.085 4.16183 76.2985 2.94836C77.5119 1.73489 79.2823 1 81.5001 1C83.7178 1 85.4883 1.73489 86.7017 2.94836C87.9152 4.16183 88.6501 5.93225 88.6501 8.15V24.45Z" fill="#F9CA3F" stroke="black" stroke-width="2"/>
<path d="M74.3501 138.55C74.3501 136.332 75.085 134.562 76.2985 133.348C77.5119 132.135 79.2823 131.4 81.5001 131.4C83.7178 131.4 85.4883 132.135 86.7017 133.348C87.9152 134.562 88.6501 136.332 88.6501 138.55V154.85C88.6501 157.068 87.9152 158.838 86.7017 160.052C85.4883 161.265 83.7178 162 81.5001 162C79.2823 162 77.5119 161.265 76.2985 160.052C75.085 158.838 74.3501 157.068 74.3501 154.85V138.55Z" fill="#F9CA3F" stroke="black" stroke-width="2"/>
<path d="M138.658 35.1528L127.299 46.5113C124.259 48.7598 120.003 49.314 117.252 46.5628C114.383 43.6933 114.383 39.4365 117.252 36.567L128.662 25.157C131.532 22.2875 135.789 22.2875 138.658 25.157C141.527 28.0265 141.527 32.2833 138.658 35.1528Z" fill="#F9CA3F" stroke="black" stroke-width="2"/>
<path d="M24.342 127.847L35.7006 116.488C38.7411 114.24 42.9966 113.686 45.7478 116.437C48.6173 119.306 48.6173 123.563 45.7478 126.433L34.3378 137.843C31.4684 140.712 27.2115 140.712 24.342 137.843C21.4726 134.973 21.4726 130.716 24.342 127.847Z" fill="#F9CA3F" stroke="black" stroke-width="2"/>
<path d="M138.55 74.3501H154.85C157.068 74.3501 158.838 75.085 160.052 76.2985C161.265 77.5119 162 79.2823 162 81.5001C162 83.7178 161.265 85.4883 160.052 86.7017C158.838 87.9152 157.068 88.6501 154.85 88.6501H138.55C136.332 88.6501 134.562 87.9152 133.348 86.7017C132.135 85.4883 131.4 83.7178 131.4 81.5001C131.4 79.2823 132.135 77.5119 133.348 76.2985C134.562 75.085 136.332 74.3501 138.55 74.3501Z" fill="#F9CA3F" stroke="black" stroke-width="2"/>
<path d="M24.45 74.3501C26.6677 74.3501 28.4382 75.085 29.6516 76.2985C30.8651 77.5119 31.6 79.2823 31.6 81.5001C31.6 83.7178 30.8651 85.4883 29.6516 86.7017C28.4382 87.9152 26.6677 88.6501 24.45 88.6501H8.15C5.93225 88.6501 4.16183 87.9152 2.94836 86.7017C1.73489 85.4883 1 83.7178 1 81.5001C1 79.2823 1.73489 77.5119 2.94836 76.2985C4.16183 75.085 5.93225 74.3501 8.15 74.3501H24.45Z" fill="#F9CA3F" stroke="black" stroke-width="2"/>
<path d="M117.252 116.437C120.122 113.568 124.379 113.568 127.248 116.437L138.658 127.847C141.527 130.717 141.527 134.974 138.658 137.843C135.789 140.713 131.532 140.713 128.662 137.843L117.252 126.433C114.383 123.564 114.383 119.307 117.252 116.437Z" fill="#F9CA3F" stroke="black" stroke-width="2"/>
<path d="M45.7239 36.5423L45.7356 36.5549L45.7478 36.567C48.6173 39.4365 48.6173 43.6934 45.7478 46.5628C42.8823 49.4284 38.6332 49.4323 35.7639 46.5747L24.366 34.3626L24.3542 34.35L24.342 34.3378C21.4726 31.4684 21.4726 27.2115 24.342 24.342C27.2076 21.4765 31.4566 21.4726 34.326 24.3302L45.7239 36.5423Z" fill="#F9CA3F" stroke="black" stroke-width="2"/>
<path d="M41.75 81.5C41.75 59.2323 59.2323 41.75 81.5 41.75C103.768 41.75 121.25 59.2323 121.25 81.5C121.25 103.768 103.768 121.25 81.5 121.25C59.2323 121.25 41.75 103.768 41.75 81.5ZM56.05 81.5C56.05 95.9073 67.0927 106.95 81.5 106.95C95.9073 106.95 106.95 95.9073 106.95 81.5C106.95 67.0927 95.9073 56.05 81.5 56.05C67.0927 56.05 56.05 67.0927 56.05 81.5Z" fill="#F9CA3F" stroke="black" stroke-width="2"/>
</svg>
