<svg width="191" height="191" viewBox="0 0 191 191" fill="none" xmlns="http://www.w3.org/2000/svg">
<path d="M97.3894 38.0154C94.5623 36.6457 91.2012 37.0162 88.739 38.9666L51.1073 68.7451H25.0405C20.5154 68.7451 16.8447 72.4122 16.8447 76.939V114.061C16.8447 118.587 20.5154 122.254 25.0405 122.254H51.1041L88.739 152.035C90.2157 153.202 92.0107 153.806 93.8236 153.806C95.0404 153.806 96.2552 153.531 97.3893 152.987C100.224 151.617 102.019 148.748 102.019 145.61V45.3925C102.016 42.2508 100.218 39.3814 97.3893 38.016L97.3894 38.0154Z" fill="#A09C9C"/>
<path d="M132.124 66.4869C128.923 63.2856 123.734 63.2856 120.538 66.4869C117.337 69.6882 117.337 74.8774 120.538 78.0731C130.144 87.6803 130.144 103.314 120.538 112.921C117.337 116.121 117.337 121.31 120.538 124.505C122.135 126.109 124.236 126.91 126.331 126.91C128.432 126.91 130.524 126.11 132.124 124.505C139.876 116.753 144.144 106.456 144.144 95.4957C144.144 84.538 139.872 74.2326 132.125 66.486L132.124 66.4869Z" fill="#A09C9C"/>
<path d="M141.781 45.2382C138.583 48.4395 138.583 53.6286 141.781 56.828C163.105 78.15 163.105 112.844 141.781 134.164C138.583 137.364 138.583 142.554 141.781 145.75C143.381 147.351 145.478 148.151 147.574 148.151C149.675 148.151 151.77 147.351 153.371 145.75C181.082 118.039 181.082 72.9425 153.371 45.2332C150.172 42.0418 144.982 42.0418 141.781 45.2388L141.781 45.2382Z" fill="#A09C9C"/>
</svg>
