<svg width="163" height="163" viewBox="0 0 163 163" fill="none" xmlns="http://www.w3.org/2000/svg">
<path d="M87.6501 24.45C87.6501 26.4405 86.9953 27.9438 85.9946 28.9445C84.9939 29.9452 83.4906 30.6 81.5001 30.6C79.5096 30.6 78.0063 29.9452 77.0056 28.9445C76.0049 27.9438 75.3501 26.4405 75.3501 24.45V8.15C75.3501 6.15949 76.0049 4.65615 77.0056 3.65546C78.0063 2.65477 79.5096 2 81.5001 2C83.4906 2 84.9939 2.65477 85.9946 3.65546C86.9953 4.65615 87.6501 6.15949 87.6501 8.15V24.45Z" fill="#A09C9C" stroke="#A09C9C" stroke-width="4"/>
<path d="M75.3501 138.55C75.3501 136.559 76.0049 135.056 77.0056 134.055C78.0063 133.055 79.5096 132.4 81.5001 132.4C83.4906 132.4 84.9939 133.055 85.9946 134.055C86.9953 135.056 87.6501 136.559 87.6501 138.55V154.85C87.6501 156.84 86.9953 158.344 85.9946 159.344C84.9939 160.345 83.4906 161 81.5001 161C79.5096 161 78.0063 160.345 77.0056 159.344C76.0049 158.344 75.3501 156.84 75.3501 154.85V138.55Z" fill="#A09C9C" stroke="#A09C9C" stroke-width="4"/>
<path d="M137.951 34.4457L126.646 45.7504C123.833 47.7993 120.206 48.1027 117.959 45.8557C115.48 43.3767 115.48 39.753 117.959 37.2741L129.369 25.8641C131.848 23.3851 135.472 23.3851 137.951 25.8641C140.43 28.343 140.43 31.9667 137.951 34.4457Z" fill="#A09C9C" stroke="#A09C9C" stroke-width="4"/>
<path d="M25.0492 128.554L36.3539 117.249C39.1673 115.2 42.7937 114.897 45.0407 117.144C47.5197 119.623 47.5197 123.247 45.0407 125.726L33.6307 137.136C31.1518 139.615 27.5281 139.615 25.0492 137.136C22.5702 134.657 22.5702 131.033 25.0492 128.554Z" fill="#A09C9C" stroke="#A09C9C" stroke-width="4"/>
<path d="M138.55 75.3501H154.85C156.84 75.3501 158.344 76.0049 159.344 77.0056C160.345 78.0063 161 79.5096 161 81.5001C161 83.4906 160.345 84.9939 159.344 85.9946C158.344 86.9953 156.84 87.6501 154.85 87.6501H138.55C136.559 87.6501 135.056 86.9953 134.055 85.9946C133.055 84.9939 132.4 83.4906 132.4 81.5001C132.4 79.5096 133.055 78.0063 134.055 77.0056C135.056 76.0049 136.559 75.3501 138.55 75.3501Z" fill="#A09C9C" stroke="#A09C9C" stroke-width="4"/>
<path d="M24.45 75.3501C26.4405 75.3501 27.9438 76.0049 28.9445 77.0056C29.9452 78.0063 30.6 79.5096 30.6 81.5001C30.6 83.4906 29.9452 84.9939 28.9445 85.9946C27.9438 86.9953 26.4405 87.6501 24.45 87.6501H8.15C6.15949 87.6501 4.65615 86.9953 3.65546 85.9946C2.65477 84.9939 2 83.4906 2 81.5001C2 79.5096 2.65477 78.0063 3.65546 77.0056C4.65615 76.0049 6.15949 75.3501 8.15 75.3501H24.45Z" fill="#A09C9C" stroke="#A09C9C" stroke-width="4"/>
<path d="M117.959 117.144C120.438 114.665 124.062 114.665 126.541 117.144L137.951 128.554C140.43 131.033 140.43 134.657 137.951 137.136C135.472 139.615 131.848 139.615 129.369 137.136L117.959 125.726C115.48 123.247 115.48 119.623 117.959 117.144Z" fill="#A09C9C" stroke="#A09C9C" stroke-width="4"/>
<path d="M44.9928 37.2246L45.0164 37.2498L45.0407 37.2742C47.5197 39.7531 47.5197 43.3768 45.0407 45.8557C42.5694 48.327 38.9604 48.3347 36.4821 45.8786L25.0971 33.6803L25.0735 33.6551L25.0492 33.6307C22.5702 31.1518 22.5702 27.5281 25.0492 25.0492C27.5205 22.5778 31.1295 22.5702 33.6078 25.0263L44.9928 37.2246Z" fill="#A09C9C" stroke="#A09C9C" stroke-width="4"/>
<path d="M42.75 81.5C42.75 59.7846 59.7846 42.75 81.5 42.75C103.215 42.75 120.25 59.7846 120.25 81.5C120.25 103.215 103.215 120.25 81.5 120.25C59.7846 120.25 42.75 103.215 42.75 81.5ZM55.05 81.5C55.05 96.4596 66.5404 107.95 81.5 107.95C96.4596 107.95 107.95 96.4596 107.95 81.5C107.95 66.5404 96.4596 55.05 81.5 55.05C66.5404 55.05 55.05 66.5404 55.05 81.5Z" fill="#A09C9C" stroke="#A09C9C" stroke-width="4"/>
</svg>
