<svg width="207" height="207" viewBox="0 0 207 207" fill="none" xmlns="http://www.w3.org/2000/svg">
<g filter="url(#filter0_d_33_2)">
<path d="M103.5 58.0166C78.4337 58.0166 58.0166 78.4337 58.0166 103.5C58.0166 128.566 78.4337 148.983 103.5 148.983C128.566 148.983 148.983 128.566 148.983 103.5C148.983 78.4337 128.566 58.0166 103.5 58.0166ZM103.5 133.822H103.378V73.1776H103.5C120.238 73.1776 133.822 86.762 133.822 103.5C133.822 120.237 120.237 133.822 103.5 133.822Z" fill="#A09C9C"/>
<path d="M103.5 42.8557C107.704 42.8557 111.1 39.4595 111.1 35.255C111.1 31.0907 107.704 27.6543 103.5 27.6543C99.3353 27.6543 95.8989 31.0505 95.8989 35.255C95.9394 39.4597 99.3355 42.8557 103.5 42.8557Z" fill="#A09C9C"/>
<path d="M103.5 164.144C99.3353 164.144 95.8989 167.54 95.8989 171.745C95.8989 175.949 99.2951 179.345 103.5 179.345C107.704 179.345 111.1 175.949 111.1 171.745C111.1 167.54 107.704 164.144 103.5 164.144Z" fill="#A09C9C"/>
<path d="M171.744 95.939C167.58 95.939 164.144 99.3351 164.144 103.54C164.144 107.744 167.54 111.14 171.744 111.14C175.949 111.14 179.345 107.744 179.345 103.54C179.305 99.335 175.908 95.939 171.744 95.939Z" fill="#A09C9C"/>
<path d="M35.295 95.939C31.1307 95.939 27.6943 99.3351 27.6943 103.54C27.6943 107.744 31.0905 111.14 35.295 111.14C39.4995 111.14 42.8957 107.744 42.8957 103.54C42.8553 99.335 39.4592 95.939 35.295 95.939Z" fill="#A09C9C"/>
<path d="M146.396 49.8902C143.444 52.8415 143.444 57.6527 146.396 60.604C149.347 63.5553 154.158 63.5553 157.109 60.604C160.061 57.6527 160.061 52.8415 157.109 49.8902C154.158 46.9389 149.347 46.9389 146.396 49.8902Z" fill="#A09C9C"/>
<path d="M49.8902 146.396C46.9389 149.347 46.9389 154.158 49.8902 157.109C52.8415 160.061 57.6527 160.061 60.604 157.109C63.5553 154.158 63.5553 149.347 60.604 146.396C57.6527 143.444 52.8415 143.444 49.8902 146.396Z" fill="#A09C9C"/>
<path d="M146.396 146.395C143.444 149.347 143.444 154.158 146.396 157.109C149.347 160.06 154.158 160.06 157.109 157.109C160.061 154.158 160.061 149.347 157.109 146.395C154.158 143.403 149.347 143.403 146.396 146.395Z" fill="#A09C9C"/>
<path d="M60.604 60.604C63.5553 57.6527 63.5553 52.8415 60.604 49.8902C57.6527 46.9389 52.8415 46.9389 49.8902 49.8902C46.9389 52.8415 46.9389 57.6527 49.8902 60.604C52.8415 63.5959 57.6527 63.5959 60.604 60.604Z" fill="#A09C9C"/>
</g>
<defs>
<filter id="filter0_d_33_2" x="-4" y="0" width="215" height="215" filterUnits="userSpaceOnUse" color-interpolation-filters="sRGB">
<feFlood flood-opacity="0" result="BackgroundImageFix"/>
<feColorMatrix in="SourceAlpha" type="matrix" values="0 0 0 0 0 0 0 0 0 0 0 0 0 0 0 0 0 0 127 0" result="hardAlpha"/>
<feOffset dy="4"/>
<feGaussianBlur stdDeviation="2"/>
<feComposite in2="hardAlpha" operator="out"/>
<feColorMatrix type="matrix" values="0 0 0 0 0 0 0 0 0 0 0 0 0 0 0 0 0 0 0.25 0"/>
<feBlend mode="normal" in2="BackgroundImageFix" result="effect1_dropShadow_33_2"/>
<feBlend mode="normal" in="SourceGraphic" in2="effect1_dropShadow_33_2" result="shape"/>
</filter>
</defs>
</svg>
