<?xml version="1.0" encoding="UTF-8"?>
<svg width="1200pt" height="1200pt" version="1.1" viewBox="0 0 1200 1200" xmlns="http://www.w3.org/2000/svg">
 <g fill="#fff">
  <path d="m611.87 238.84c-17.762-8.6055-38.879-6.2773-54.348 5.9766l-236.43 187.09h-163.77c-28.43 0-51.492 23.039-51.492 51.48v233.23c0 28.43 23.062 51.469 51.492 51.469h163.75l236.45 187.11c9.2773 7.332 20.555 11.125 31.945 11.125 7.6445 0 15.277-1.7266 22.402-5.1484 17.809-8.6055 29.09-26.629 29.09-46.344v-629.64c-0.023437-19.738-11.316-37.766-29.09-46.344z"/>
  <path d="m830.1 417.72c-20.113-20.113-52.715-20.113-72.793 0-20.113 20.113-20.113 52.715 0 72.793 60.348 60.359 60.348 158.58 0 218.94-20.113 20.102-20.113 52.703 0 72.781 10.031 10.078 23.23 15.109 36.395 15.109 13.199 0 26.34-5.0273 36.395-15.109 48.707-48.707 75.516-113.4 75.516-182.26 0.003907-68.844-26.84-133.59-75.512-182.26z"/>
  <path d="m890.77 284.22c-20.09 20.113-20.09 52.715 0 72.816 133.97 133.96 133.97 351.93 0 485.88-20.09 20.102-20.09 52.715 0 72.793 10.055 10.055 23.23 15.086 36.395 15.086 13.199 0 26.363-5.0273 36.422-15.086 174.1-174.1 174.1-457.43 0-631.52-20.102-20.051-52.707-20.051-72.816 0.035156z"/>
 </g>
</svg>
