<svg width="191" height="191" viewBox="0 0 191 191" fill="none" xmlns="http://www.w3.org/2000/svg">
<path d="M89.3596 39.7508L89.36 39.7505C91.4928 38.061 94.3936 37.722 96.8541 38.8681L96.9546 38.9166C99.4371 40.1147 101.016 42.634 101.019 45.3936V145.61C101.019 148.364 99.4438 150.882 96.9557 152.085C95.9555 152.566 94.8887 152.806 93.8236 152.806C92.2328 152.806 90.6569 152.276 89.3591 151.251L51.7246 121.469L51.4519 121.254H51.1041H25.0405C21.0671 121.254 17.8447 118.034 17.8447 114.061V76.939C17.8447 72.9649 21.0673 69.7451 25.0405 69.7451H51.1073H51.4551L51.7278 69.5293L89.3596 39.7508Z" fill="#F9CA3F" stroke="black" stroke-width="2"/>
<path d="M120.538 78.0731C130.144 87.6803 130.144 103.314 120.538 112.921C117.337 116.121 117.337 121.31 120.538 124.505C122.135 126.109 124.236 126.91 126.331 126.91C128.432 126.91 130.524 126.11 132.124 124.505C139.876 116.753 144.144 106.456 144.144 95.4957C144.144 84.9513 140.188 75.0109 132.986 67.3733L120.538 78.0731ZM120.538 78.0731C117.337 74.8774 117.337 69.6882 120.538 66.4869V78.0731ZM131.417 67.194L131.598 67.375C139.043 74.9132 143.144 84.889 143.144 95.4956V95.4957C143.144 106.191 138.982 116.233 131.417 123.798L131.416 123.799C130.01 125.208 128.177 125.91 126.331 125.91C124.49 125.91 122.648 125.207 121.247 123.8L121.245 123.798C118.435 120.993 118.434 116.438 121.245 113.628L121.245 113.628C131.241 103.63 131.241 87.3638 121.245 77.3661L121.245 77.3654C118.435 74.5607 118.434 70.0052 121.245 67.194L121.246 67.1934C124.051 64.3838 128.606 64.3829 131.417 67.194Z" fill="#F9CA3F" stroke="black" stroke-width="2"/>
<path d="M142.488 56.1211C139.701 53.3322 139.681 48.8202 142.429 46.0047L142.488 45.9463C145.298 43.1392 149.855 43.1393 152.664 45.9408C179.984 73.2596 179.984 117.723 152.664 145.043C151.258 146.449 149.42 147.151 147.574 147.151C145.733 147.151 143.894 146.449 142.488 145.043L142.488 145.043C139.681 142.238 139.681 137.68 142.488 134.871C164.202 113.16 164.202 77.8336 142.488 56.1211Z" fill="#F9CA3F" stroke="black" stroke-width="2"/>
</svg>
