<svg width="191" height="191" viewBox="0 0 191 191" fill="none" xmlns="http://www.w3.org/2000/svg">
<path d="M96.9342 38.9148L96.9354 38.9154C99.4195 40.1139 100.998 42.6324 101 45.3917V145.609C101 148.363 99.4239 150.882 96.9394 152.084C95.9367 152.564 94.8664 152.805 93.8059 152.805C92.2112 152.805 90.635 152.275 89.3377 151.25L51.7055 121.469L51.4327 121.253H51.0849H25.023C21.0481 121.253 17.8271 118.033 17.8271 114.061V76.9386C17.8271 72.9645 21.0482 69.7447 25.023 69.7447H51.0849H51.4327L51.7054 69.5289L89.3382 39.7501L89.3385 39.7498C91.4998 38.0378 94.4509 37.7126 96.9342 38.9148Z" fill="#F9CB40" stroke="black" stroke-width="2"/>
</svg>
