<?xml version="1.0" encoding="UTF-8"?>
<svg width="1200pt" height="1200pt" version="1.1" viewBox="0 0 1200 1200" xmlns="http://www.w3.org/2000/svg">
 <g fill="#fff">
  <path d="m600 336.33c-145.31 0-263.67 118.36-263.67 263.67s118.36 263.67 263.67 263.67 263.67-118.36 263.67-263.67-118.36-263.67-263.67-263.67m0 439.45h-0.70312v-351.56h0.70312c97.031 0 175.78 78.75 175.78 175.78s-78.75 175.78-175.78 175.78"/>
  <path d="m600 248.44c24.375 0 44.062-19.688 44.062-44.062 0-24.141-19.688-44.062-44.062-44.062-24.141 0-44.062 19.688-44.062 44.062 0.23438 24.375 19.922 44.062 44.062 44.062"/>
  <path d="m600 951.56c-24.141 0-44.062 19.688-44.062 44.062s19.688 44.062 44.062 44.062 44.062-19.688 44.062-44.062-19.688-44.062-44.062-44.062"/>
  <path d="m995.62 556.17c-24.141 0-44.062 19.688-44.062 44.062s19.688 44.062 44.062 44.062 44.062-19.688 44.062-44.062c-0.23438-24.375-19.922-44.062-44.062-44.062"/>
  <path d="m204.61 556.17c-24.141 0-44.062 19.688-44.062 44.062s19.688 44.062 44.062 44.062 44.062-19.688 44.062-44.062c-0.23438-24.375-19.922-44.062-44.062-44.062"/>
  <path d="m848.67 289.22c-17.109 17.109-17.109 45 0 62.109s45 17.109 62.109 0 17.109-45 0-62.109-45-17.109-62.109 0"/>
  <path d="m289.22 848.67c-17.109 17.109-17.109 45 0 62.109s45 17.109 62.109 0 17.109-45 0-62.109-45-17.109-62.109 0"/>
  <path d="m848.67 848.67c-17.109 17.109-17.109 45 0 62.109s45 17.109 62.109 0 17.109-45 0-62.109c-17.109-17.344-45-17.344-62.109 0"/>
  <path d="m351.33 351.33c17.109-17.109 17.109-45 0-62.109s-45-17.109-62.109 0-17.109 45 0 62.109c17.109 17.344 45 17.344 62.109 0"/>
 </g>
</svg>
